<svg xmlns="http://www.w3.org/2000/svg" width="27.733" height="39.653" viewBox="0 0 27.733 39.653">
  <path id="trip" d="M202.971,213.671A2.981,2.981,0,0,1,200,210.7V187.4a3.478,3.478,0,0,1,3.467-3.47h4.457v-6.444a1.236,1.236,0,0,1,.611-1.09,2.462,2.462,0,0,1,1.37-.4h7.924a2.462,2.462,0,0,1,1.37.4,1.236,1.236,0,0,1,.611,1.09v6.444h4.952a2.981,2.981,0,0,1,2.971,2.974V210.7a2.981,2.981,0,0,1-2.971,2.974,1.981,1.981,0,1,1-3.962,0H206.933a1.981,1.981,0,1,1-3.962,0Zm6.933-29.74h7.924v-5.948H209.9ZM202.971,210.7h21.791V186.9H202.971Zm3.467-2.974h1.981V189.879h-1.981Zm6.438,0h1.981V189.879h-1.981Zm6.438,0H221.3V189.879h-1.981ZM202.971,210.7v0Z" transform="translate(-200 -176)"/>
</svg>
